<svg width="455" height="319" viewBox="0 0 455 319" fill="none" xmlns="http://www.w3.org/2000/svg">
<path d="M135.826 290.708C133.662 289.769 130.843 288.789 127.371 287.85C124.757 287.156 122.715 286.502 121.204 285.89C119.692 285.278 118.467 284.461 117.487 283.44C116.506 282.42 116.016 281.113 116.016 279.48C116.016 277.112 116.792 275.316 118.344 274.091C119.896 272.825 121.898 272.213 124.349 272.213C127.045 272.213 129.25 272.907 130.884 274.254C132.518 275.602 133.457 277.235 133.58 279.154H143.056C142.688 274.744 140.932 271.274 137.705 268.743C134.478 266.211 130.312 264.946 125.288 264.946C121.735 264.946 118.589 265.558 115.894 266.742C113.198 267.926 111.074 269.682 109.603 271.927C108.092 274.173 107.357 276.826 107.357 279.807C107.357 283.073 108.092 285.645 109.603 287.605C111.115 289.564 112.912 290.993 115.036 291.932C117.16 292.871 119.937 293.77 123.328 294.668C126.023 295.362 128.147 296.015 129.659 296.627C131.17 297.24 132.477 298.097 133.498 299.2C134.519 300.302 135.05 301.731 135.05 303.486C135.05 305.732 134.233 307.569 132.559 308.998C130.925 310.427 128.597 311.121 125.656 311.121C122.797 311.121 120.591 310.386 118.998 308.957C117.405 307.487 116.547 305.65 116.343 303.405H107.193C107.193 306.426 108.01 309.039 109.603 311.284C111.196 313.53 113.402 315.285 116.22 316.51C119.039 317.735 122.184 318.347 125.697 318.347C129.414 318.347 132.6 317.653 135.336 316.224C138.073 314.795 140.156 312.917 141.586 310.549C143.015 308.182 143.71 305.691 143.71 303.037C143.71 299.73 142.934 297.077 141.422 295.117C139.87 293.116 137.991 291.647 135.826 290.708Z" fill="#2E2B2B"/>
<path d="M151.103 272.622H165.072V317.817H173.65V272.622H187.537V265.64H151.103V272.622Z" fill="#2E2B2B"/>
<path d="M228.302 298.914C228.302 302.874 227.281 305.855 225.197 307.855C223.114 309.856 220.214 310.876 216.456 310.876C212.739 310.876 209.839 309.897 207.797 307.855C205.714 305.855 204.693 302.874 204.693 298.914V265.64H196.115V298.751C196.115 302.997 197.014 306.59 198.811 309.57C200.608 312.509 203.059 314.714 206.122 316.184C209.186 317.654 212.617 318.348 216.375 318.348C220.132 318.348 223.564 317.613 226.668 316.184C229.772 314.714 232.264 312.55 234.102 309.57C235.94 306.63 236.879 302.997 236.879 298.751V265.64H228.302V298.914Z" fill="#2E2B2B"/>
<path d="M279.645 268.825C275.479 266.702 270.578 265.64 265.023 265.64H247.99V317.817H265.023C270.578 317.817 275.438 316.796 279.645 314.714C283.812 312.632 287.039 309.652 289.326 305.732C291.613 301.813 292.757 297.24 292.757 291.933C292.757 286.625 291.613 281.971 289.326 278.011C287.039 274.01 283.812 270.948 279.645 268.825ZM279.074 305.896C275.806 309.202 271.15 310.836 265.023 310.836H256.527V272.622H265.023C271.15 272.622 275.806 274.336 279.074 277.725C282.341 281.114 283.975 285.849 283.975 291.933C283.975 297.934 282.341 302.589 279.074 305.896Z" fill="#2E2B2B"/>
<path d="M309.831 265.64H301.253V317.817H309.831V265.64Z" fill="#2E2B2B"/>
<path d="M358.354 268.375C354.27 266.089 349.777 264.946 344.875 264.946C340.015 264.946 335.562 266.089 331.478 268.375C327.393 270.662 324.166 273.805 321.797 277.888C319.428 281.93 318.244 286.502 318.244 291.606C318.244 296.709 319.428 301.323 321.797 305.364C324.166 309.447 327.393 312.632 331.478 314.918C335.562 317.204 340.015 318.347 344.875 318.347C349.777 318.347 354.27 317.204 358.354 314.918C362.439 312.632 365.666 309.447 367.994 305.364C370.363 301.282 371.507 296.709 371.507 291.606C371.507 286.502 370.322 281.93 367.994 277.888C365.666 273.805 362.439 270.662 358.354 268.375ZM360.437 301.772C358.926 304.711 356.802 306.957 354.106 308.508C351.411 310.1 348.306 310.876 344.875 310.876C341.444 310.876 338.34 310.1 335.644 308.508C332.948 306.916 330.824 304.67 329.313 301.772C327.802 298.832 327.026 295.444 327.026 291.606C327.026 287.768 327.802 284.379 329.313 281.481C330.824 278.582 332.948 276.337 335.644 274.785C338.34 273.234 341.444 272.458 344.875 272.458C348.306 272.458 351.411 273.234 354.106 274.785C356.802 276.337 358.926 278.582 360.437 281.481C361.949 284.379 362.725 287.768 362.725 291.606C362.725 295.484 361.99 298.873 360.437 301.772Z" fill="#2E2B2B"/>
<path d="M94.3271 305.773C90.8552 305.773 88.0369 308.59 88.0369 312.061C88.0369 315.531 90.8552 318.348 94.3271 318.348C97.799 318.348 100.617 315.531 100.617 312.061C100.617 308.59 97.799 305.773 94.3271 305.773Z" fill="#2E2B2B"/>
<path d="M69.3302 252.697V184.761H55.3609V194.478C53.1144 191.416 49.9693 188.844 45.9664 186.762C41.9635 184.679 37.3479 183.659 32.2013 183.659C26.3603 183.659 21.0504 185.088 16.2306 187.946C11.4108 190.803 7.61209 194.845 4.83457 200.03C2.0162 205.215 0.627441 211.176 0.627441 217.872C0.627441 224.567 2.0162 230.61 4.83457 235.876C7.61209 241.184 11.4108 245.307 16.2306 248.247C21.0504 251.227 26.3603 252.697 32.2013 252.697C37.307 252.697 41.8409 251.635 45.8438 249.472C49.8467 247.349 53.0327 244.695 55.3609 241.51V252.656C55.3609 259.107 53.6454 264.047 50.2143 267.476C46.7833 270.906 42.2494 272.58 36.6943 272.58C31.9154 272.58 27.8308 271.518 24.3589 269.354C20.9278 267.231 18.6813 264.414 17.6193 260.944H3.89511C4.71203 268.211 8.10224 273.968 14.1066 278.214C20.1109 282.46 27.6266 284.583 36.6943 284.583C43.4748 284.583 49.3566 283.195 54.2172 280.459C59.1187 277.724 62.8357 273.927 65.4498 269.109C68.0231 264.333 69.3302 258.821 69.3302 252.697ZM52.5017 230.201C50.5819 233.631 48.1312 236.244 45.0269 238.04C41.9635 239.837 38.6141 240.694 35.0605 240.694C31.5886 240.694 28.2801 239.796 25.1758 237.958C22.0715 236.121 19.5391 233.508 17.6602 229.997C15.7404 226.527 14.801 222.485 14.801 217.872C14.801 213.258 15.7404 209.298 17.6602 205.909C19.5799 202.562 22.0715 200.03 25.135 198.275C28.1984 196.519 31.5069 195.662 35.1014 195.662C38.655 195.662 41.9635 196.56 45.0678 198.316C48.1312 200.112 50.6228 202.684 52.5425 206.073C54.4623 209.461 55.4018 213.462 55.4018 218.076C55.3609 222.73 54.4215 226.731 52.5017 230.201Z" fill="#2E2B2B"/>
<path d="M101.353 216.403C101.353 209.626 102.742 204.849 105.56 202.073C108.338 199.337 112.463 197.949 117.896 197.949H121.408V183.619C116.793 183.619 112.79 184.558 109.441 186.477C106.091 188.396 103.395 191.009 101.353 194.438V184.721H87.5064V251.555H101.353V216.403Z" fill="#2E2B2B"/>
<path d="M146.038 248.37C151.143 251.228 156.821 252.657 163.152 252.657C169.524 252.657 175.406 251.228 180.675 248.37C185.985 245.512 190.151 241.43 193.256 236.163C196.319 230.896 197.871 224.895 197.871 218.077C197.871 211.3 196.36 205.257 193.378 199.99C190.396 194.724 186.312 190.682 181.124 187.865C175.937 185.048 170.178 183.619 163.765 183.619C157.352 183.619 151.593 185.048 146.405 187.865C141.218 190.682 137.133 194.724 134.152 199.99C131.17 205.257 129.659 211.259 129.659 218.077C129.659 224.936 131.129 230.978 134.029 236.204C136.929 241.471 140.932 245.512 146.038 248.37ZM146.405 205.788C148.203 202.44 150.613 199.909 153.635 198.194C156.658 196.479 159.966 195.663 163.52 195.663C167.073 195.663 170.382 196.52 173.486 198.194C176.55 199.909 179.041 202.44 180.879 205.788C182.758 209.136 183.657 213.259 183.657 218.118C183.657 222.976 182.677 227.1 180.757 230.488C178.796 233.877 176.305 236.449 173.159 238.123C170.055 239.838 166.706 240.654 163.152 240.654C157.556 240.654 152.941 238.694 149.265 234.775C145.588 230.856 143.75 225.303 143.75 218.077C143.75 213.259 144.608 209.177 146.405 205.788Z" fill="#2E2B2B"/>
<path d="M239.127 251.595L252.606 202.236L266.085 251.595H280.667L301.417 184.762H287.815L273.968 238.245L260.367 184.762H245.948L231.734 238.49L217.764 184.762H203.713L224.586 251.595H239.127Z" fill="#2E2B2B"/>
<path d="M361.868 194.479C359.54 191.417 356.395 188.844 352.474 186.762C348.552 184.68 343.937 183.659 338.708 183.659C332.868 183.659 327.558 185.088 322.738 187.946C317.918 190.804 314.119 194.846 311.342 200.031C308.564 205.216 307.135 211.136 307.135 217.872C307.135 224.568 308.523 230.61 311.342 235.877C314.119 241.185 317.918 245.308 322.697 248.248C327.476 251.187 332.745 252.657 338.463 252.657C343.651 252.657 348.266 251.595 352.31 249.513C356.354 247.39 359.54 244.777 361.909 241.634V251.595H375.878V184.762H361.909V194.479H361.868ZM359.009 230.202C357.089 233.632 354.638 236.245 351.534 238.041C348.471 239.837 345.121 240.695 341.568 240.695C338.096 240.695 334.787 239.796 331.683 237.959C328.579 236.122 326.046 233.509 324.167 229.998C322.248 226.528 321.308 222.486 321.308 217.872C321.308 213.259 322.248 209.299 324.167 205.91C326.087 202.562 328.538 199.99 331.642 198.275C334.706 196.52 338.014 195.663 341.609 195.663C345.162 195.663 348.471 196.561 351.575 198.316C354.638 200.113 357.13 202.685 359.05 206.073C360.97 209.462 361.909 213.463 361.909 218.077C361.868 222.731 360.888 226.732 359.009 230.202Z" fill="#2E2B2B"/>
<path d="M439.883 184.762L420.359 235.714L401.529 184.762H386.13L412.476 250.493L398.874 283.032H413.211L454.22 184.762H439.883Z" fill="#2E2B2B"/>
<path d="M160.144 120.121C151.665 78.1286 159.764 50.0189 185.613 31.6924C207.67 16.0529 240.445 9.47327 281.906 1.13679L287.523 0L293.658 30.3834L288.04 31.5202C250.164 39.1332 220.249 45.1617 203.569 56.9774C192.437 64.8661 183.131 77.233 190.541 113.989L160.144 120.121Z" fill="#2E2B2B"/>
<path d="M168.38 158.875L162.246 128.492L167.863 127.355C205.74 119.742 235.655 113.714 252.335 101.898C263.467 94.0094 272.773 81.6425 265.363 44.8862L295.76 38.7544C304.239 80.7468 296.139 108.857 270.291 127.183C248.234 142.823 215.459 149.402 173.998 157.739L168.38 158.875Z" fill="#2E2B2B"/>
</svg>
